<svg width="200" height="200" viewBox="0 0 200 200" fill="none" xmlns="http://www.w3.org/2000/svg">
<circle cx="100" cy="100" r="100" fill="#38A100"/>
<path d="M124.274 98.6975C120.14 105.841 117.137 107.515 113.281 109.071C118.057 104.812 120.362 100.193 119.983 95.1444C109.228 83.2673 86.1571 61.5834 129.087 21.6261C118.73 26.1318 108.89 31.1043 99.6909 36.5458C97.1118 38.7719 95.7543 41.4058 95.9974 44.1453C94.5526 41.8266 95.1575 39.4264 97.3699 37.3402C88.4041 42.4477 83.0298 47.3484 79.8707 50.7653C74.9552 56.0822 67.8315 63.3759 75.2119 73.5823C68.7881 69.8688 67.6174 64.8989 70.6981 60.2983C60.5083 71.2999 50.1993 87.4857 55.3869 105.959C55.9795 108.069 56.7444 110.102 57.6466 112.057C62.3822 117.753 70.5422 122.085 80.5492 124.819C72.3351 122.96 64.4459 120.359 57.3456 116.981C60.7149 131.425 76.7136 144.927 97.1625 153.414C98.5096 133.129 91.2661 120.088 88.1987 112.458C78.8271 89.1436 86.0227 69.6613 86.3206 69.6618C86.5859 69.6624 82.0876 85.1758 90.6719 105.22C94.9327 115.168 106.802 129.999 107.011 155.332C108.305 154.704 109.882 153.891 111.593 152.906C112.553 136.195 107.283 123.793 95.2328 108.238C107.517 121.65 114.121 136.736 112.941 152.109C136.169 138.02 138.212 116.074 124.274 98.6975Z" fill="white"/>
<path d="M106.448 163.678C105.949 158.391 105.961 154.563 105.77 151.224C104.098 121.927 92.0255 116.584 86.6211 94.0155C88.5558 115.12 109.109 146.427 95.7115 166.252C93.8825 168.958 92.9678 170.312 90.8843 171.904C88.4764 173.744 86.799 174.226 87.107 175.097C87.7086 176.8 95.0313 178.369 100.689 177.177C103.857 176.51 106.502 174.976 107.301 173.259C107.929 171.911 107.299 172.692 106.448 163.678ZM90.8515 173.97C85.7605 176.925 91.751 172.724 93.5611 171.143C98.7614 166.598 101.342 160.965 101.278 155.751C102.197 163.387 97.3124 170.22 90.8515 173.97Z" fill="white"/>
</svg>
